# xmcd
#
# Track frame offsets: 
#        150
#        19474
#        39148
#        56622
#        73668
#        83232
#        104785
#        123566
#        140710
#        171450
#
# Disc length: 2624 seconds
#
# Revision: 1
# Processed by: cddbd v1.5.2PL0 Copyright (c) Steve Scherf et al.
# Submitted via: ExactAudioCopy v1.0b2
#
DISCID=960a3e0a
DTITLE=Booker T. - Potato Hole
DYEAR=2009
DGENRE=Instrumental Rock
TTITLE0=Pound It Out
TTITLE1=She Breaks
TTITLE2=Hey Ya
TTITLE3=Native New Yorker
TTITLE4=Nan
TTITLE5=Warped Sister
TTITLE6=Get Behind the Mule
TTITLE7=Reunion Time
TTITLE8=Potato Hole
TTITLE9=Space City
EXTD=
EXTT0=
EXTT1=
EXTT2=
EXTT3=
EXTT4=
EXTT5=
EXTT6=
EXTT7=
EXTT8=
EXTT9=
PLAYORDER=
